<svg version="1" xmlns="http://www.w3.org/2000/svg" width="800" height="800" viewBox="0 0 600.000000 600.000000"><path d="M288.7 17.5c-.1.2-4.9.5-10.7.9-5.8.3-11.6.8-13 1-1.4.3-5.6.9-9.5 1.5-28.1 4.3-55.5 13.1-81.9 26.3-28.3 14.2-50.1 30-73.2 53.2-28.8 28.9-48.3 58.3-62.8 94.4-8 19.8-15.2 46.5-17.1 63.2-.3 2.5-.7 5.6-1 6.9-1.8 9.4-2.5 42.9-1.2 58.7.6 7 2.1 18.2 4.3 31.4 1.4 8.7 7.6 30.7 12 42.4 9.7 26.6 26.5 56.2 44.2 78.5 6.9 8.7 32 34.7 38.2 39.6 1.4 1.1 5.7 4.5 9.5 7.6 13.3 10.6 30.5 21.4 48 30.2 69.6 35 155.6 38.8 228.3 10.1 19.8-7.9 42.3-19.8 58.7-31.3 19-13.3 45.6-38.3 59.8-56.2 16.9-21.4 32.3-48.2 42.1-73.1 4.3-11.1 11.8-35.5 13-42.9 1-5.8 1.7-9.3 2.1-10.9.2-.8.7-4.2 1.1-7.5.3-3.3.7-6.2.9-6.6.8-1.1 1.9-24.4 1.9-36.9-.1-11.6-.9-27.3-1.9-33.1-.2-1.3-.9-5.8-1.5-9.9-5.4-36.3-20.3-75.4-41.1-107.6-7.7-11.9-5.8-9.3-17.7-24.4-9.7-12.2-29.6-32.5-39.7-40.5-2.7-2.2-5.2-4.3-5.5-4.6-1.2-1.5-19.2-14-27.5-19.1-19.6-12-45-23.4-66.5-29.7-12.3-3.6-30.9-7.7-39.5-8.6-3.3-.4-6.2-.9-6.6-1-1.5-.9-45.2-2.7-46.2-2zM323 36.4c4.7.4 9.2.9 10 1.1.8.2 4 .7 7 1 3 .3 7.1 1 9 1.5 1.9.5 4.9 1.1 6.5 1.3 10 1.6 34.9 9.5 50.5 16.2 28.7 12.3 58.1 32.6 81.9 56.5 54.7 55.2 81.5 128.7 75.8 207.9-.5 5.8-.9 10.7-1.1 11-.2.3-.7 3.1-1 6.2-.7 5.6-1 7.9-2.1 12.9-.3 1.4-.7 3.4-.9 4.5-2.3 12-9.1 32.8-15.5 48-22.8 53.6-66.7 101.3-119.1 129.3-18.5 9.9-43.6 19.3-63.5 23.9-3.4.7-22.9 4.3-26 4.8-16.9 2.3-58.2 2.3-67.5 0-.8-.2-3.7-.6-6.5-1-2.7-.3-6.1-.8-7.5-1-1.4-.3-3.4-.7-4.5-.9-14-2.7-36.2-9.5-51-15.7-56-23.3-104.6-68.3-132.8-123-7.9-15.3-17-38.6-20.2-51.5-2.2-8.8-5.6-25.9-6.1-30.3-.3-3-.7-5.8-.9-6.1-.7-1.2-1.9-22.8-1.8-34.5.3-99.4 55.9-189.1 145.8-235.2 22.1-11.3 55.5-21.8 79-24.9 2.8-.3 5.3-.8 5.6-.9.3-.2 5.7-.7 12-1.1 6.3-.3 11.5-.7 11.6-.8.5-.4 25.8.2 33.3.8z"/><path d="M290.9 52.7c-19.3 3.9-35.5 19.1-40.3 37.9-6.8 26.3 8.7 54.5 34.2 62.4l5.7 1.8.3 45.5.2 45.5-5.6 1.8c-16 5-28.3 17.1-33.8 33.5-2.2 6.3-2.5 8.9-2.2 17.4.3 11.4 2.5 18.8 8.1 27.1 6.8 10.3 18 18.7 28.8 21.6l4.7 1.2-.2 48.6-.3 48.5-2.5.3c-2.4.3-5-4.8-53.1-101l-50.7-101.3 5.7-6c9.9-10.7 15-23.6 14.5-37.2-.6-19.5-10.7-35.8-27.5-44.8-25.5-13.5-57.5-3.6-70.3 21.9-17.9 35.3 6.7 75.8 45.9 75.7 5 0 10.4-.4 12.1-.9l3.1-1 50.6 101.4c27.9 55.7 50.7 101.7 50.6 102.1 0 .4-1.3 1.8-2.8 3l-2.8 2.2-31.5-21-31.6-21 2-6.2c2.4-7.7 2.9-18.3 1.2-25.1-2.5-10-3.5-12.5-7.4-18.3-11.8-17.7-32.6-26.5-53.5-22.7-14.4 2.6-30.2 14.7-36.6 28.1-13.7 28.7.1 61.8 30.2 72.4 9.5 3.4 24.8 3.2 34.2-.4 6.6-2.6 13.1-6.5 17.4-10.6l2.3-2.1 31.5 21c17.3 11.6 31.5 21.2 31.5 21.4 0 .2-.7 2.3-1.6 4.7-2.2 6.3-3 20.4-1.4 27 4.3 18.2 15.9 31.5 33 38 6.8 2.6 10.3 3.1 19.1 3 23.3-.3 43.4-16.2 49.3-39.1 2.5-9.9 1.4-23.6-2.7-34-.4-1 .5-2.2 2.6-3.5 1.8-1.2 10.4-7 19.2-13 8.8-6 21.1-14.4 27.4-18.6l11.5-7.7 3.9 3.3c5 4.3 14.6 8.9 21.5 10.4 25.7 5.4 51.7-9.7 60.3-34.9 2.9-8.5 3.1-23 .5-31-4.6-13.9-14.3-25.3-26.8-31.4-9.1-4.5-10.2-4.8-21.5-5.2-15-.5-27 3.9-37.2 13.7-5.4 5.2-12.1 14.8-12.1 17.3 0 .8-.4 1.7-.9 2-.9.6-2.9 9.9-3.4 15.9-.5 5.4 1 15.4 3.2 21 .6 1.6 1.1 3.2 1.1 3.7 0 .7-27.1 19.5-53.5 37.2l-7 4.6-3-2.3c-1.6-1.3-2.9-2.9-2.7-3.5.6-2.8 100.7-201.8 101.3-201.4 1.4.8 10.7 1.7 17.2 1.5 20.4-.4 39.1-14.5 46.5-35.1 3-8.5 3.4-22.9.8-31-9-27.6-35.1-42.5-63.1-36-2.7.6-7.2 2.2-10 3.6-4.7 2.4-14.2 9.5-15.7 11.9-.3.5-1.6 2.1-2.8 3.5-4.1 4.7-8.6 15-9.7 22.5-2.7 17.4 2.3 33.3 14.3 45.3l5.3 5.4-50.5 101.1c-27.8 55.7-50.7 101.3-50.7 101.4-.1.1-1.4-.1-3-.4l-2.7-.5.2-48.1.3-48.1 4.8-1.2c15.9-4 29.5-16.6 35.7-32.9 2.9-7.6 3.6-21.6 1.5-29.5-3.9-15-14.1-27.6-27.5-34.2-4.1-2-9.2-4-11.2-4.3l-3.8-.7V155.5l7.1-2.3c16.1-5 28.9-17.6 34.4-33.7 2.9-8.4 2.8-25.5-.2-32.5-.3-.8-.6-1.8-.5-2.1.2-1.1-7.1-12.5-10.3-16.1-12.2-13.5-30.9-19.7-48.6-16.1z"/></svg>