<?xml version="1.0" standalone="no"?>
<!DOCTYPE svg PUBLIC "-//W3C//DTD SVG 20010904//EN"
 "http://www.w3.org/TR/2001/REC-SVG-20010904/DTD/svg10.dtd">
<svg version="1.0" xmlns="http://www.w3.org/2000/svg"
 width="280.000000pt" height="280.000000pt" viewBox="0 0 280.000000 280.000000"
 preserveAspectRatio="xMidYMid meet">
<metadata>
Created by potrace 1.11, written by Peter Selinger 2001-2013
</metadata>
<g transform="translate(0.000000,280.000000) scale(0.100000,-0.100000)"
fill="#000000" stroke="none">
<path d="M1195 2735 c-560 -89 -1005 -513 -1120 -1070 -9 -44 -19 -137 -22
-207 -17 -384 121 -739 394 -1011 529 -530 1377 -530 1906 0 273 272 411 627
394 1011 -6 144 -25 246 -69 377 -140 418 -506 760 -932 871 -165 43 -388 55
-551 29z m-164 -830 c74 -8 167 -53 228 -110 57 -54 105 -120 97 -134 -3 -5
-50 -33 -103 -61 -71 -38 -98 -48 -102 -39 -2 8 -27 37 -55 66 -80 80 -164 98
-289 61 -58 -18 -120 -78 -152 -150 -25 -53 -29 -76 -30 -148 0 -77 3 -92 33
-152 38 -79 86 -122 156 -143 99 -30 201 -14 266 42 38 33 70 79 70 103 0 6
-41 10 -115 10 l-115 0 0 95 0 95 245 0 245 0 0 -41 c0 -68 -30 -180 -71 -266
-98 -206 -293 -294 -559 -253 -97 16 -178 59 -248 134 -108 115 -147 232 -140
411 6 125 24 185 88 284 46 71 133 139 218 172 56 21 189 39 247 33 17 -2 55
-6 86 -9z m779 -216 c0 -112 4 -199 9 -197 5 2 82 92 171 201 l162 197 140 0
c132 0 140 -1 127 -17 -8 -10 -96 -114 -196 -232 -101 -118 -183 -217 -183
-221 0 -6 337 -419 418 -512 14 -17 7 -18 -135 -18 l-151 0 -173 215 c-95 118
-176 215 -181 215 -4 0 -8 -97 -8 -215 l0 -215 -115 0 -115 0 0 500 0 500 115
0 115 0 0 -201z"/>
</g>
</svg>
