<?xml version="1.0" encoding="utf-8"?>
<!-- Generator: Adobe Illustrator 15.0.0, SVG Export Plug-In . SVG Version: 6.00 Build 0)  -->
<!DOCTYPE svg PUBLIC "-//W3C//DTD SVG 1.1//EN" "http://www.w3.org/Graphics/SVG/1.1/DTD/svg11.dtd">
<svg version="1.1" id="Layer_2" xmlns="http://www.w3.org/2000/svg" xmlns:xlink="http://www.w3.org/1999/xlink" x="0px" y="0px"
	 width="640px" height="1181px" viewBox="0 0 640 1181" enable-background="new 0 0 640 1181" xml:space="preserve">
<circle fill="#E6FAF1" cx="535.5" cy="-0.429" r="32.857"/>
<circle fill="#E6FAF1" cx="431.286" cy="151" r="18.571"/>
<circle fill="#E6FAF1" cx="297" cy="288.143" r="12.857"/>
<circle fill="#E6FAF1" cx="169.857" cy="401" r="31.429"/>
<circle fill="#E6FAF1" cx="91.286" cy="608.143" r="44.286"/>
<circle fill="#E6FAF1" cx="159.857" cy="776.714" r="27.143"/>
<circle fill="#E6FAF1" cx="298.429" cy="906.714" r="20"/>
<circle fill="#E6FAF1" cx="429.857" cy="1021" r="25.714"/>
<line fill="none" stroke="#E6FAF1" stroke-width="8" stroke-miterlimit="10" x1="537" y1="3" x2="427" y2="147"/>
<line fill="none" stroke="#E6FAF1" stroke-width="8" stroke-miterlimit="10" x1="427" y1="147" x2="295" y2="287"/>
<line fill="none" stroke="#E6FAF1" stroke-width="8" stroke-miterlimit="10" x1="295" y1="287" x2="167" y2="401"/>
<line fill="none" stroke="#E6FAF1" stroke-width="8" stroke-miterlimit="10" x1="167" y1="401" x2="89" y2="605"/>
<line fill="none" stroke="#E6FAF1" stroke-width="8" stroke-miterlimit="10" x1="89" y1="605" x2="155" y2="773"/>
<line fill="none" stroke="#E6FAF1" stroke-width="8" stroke-miterlimit="10" x1="155" y1="773" x2="293" y2="905"/>
<line fill="none" stroke="#E6FAF1" stroke-width="8" stroke-miterlimit="10" x1="293" y1="905" x2="429" y2="1019"/>
<line fill="none" stroke="#E6FAF1" stroke-width="8" stroke-miterlimit="10" x1="429" y1="1019" x2="535" y2="1183"/>
<circle fill="#E6FAF1" cx="535.5" cy="1178.571" r="32.857"/>
</svg>
