<?xml version="1.0" encoding="utf-8"?>
<!-- Generator: Adobe Illustrator 15.0.0, SVG Export Plug-In . SVG Version: 6.00 Build 0)  -->
<!DOCTYPE svg PUBLIC "-//W3C//DTD SVG 1.1//EN" "http://www.w3.org/Graphics/SVG/1.1/DTD/svg11.dtd">
<svg version="1.1" xmlns="http://www.w3.org/2000/svg" xmlns:xlink="http://www.w3.org/1999/xlink" x="0px" y="0px" width="76px"
	 height="202.915px" viewBox="0 0 76 202.915" enable-background="new 0 0 76 202.915" xml:space="preserve">
<g id="Layer_1" display="none">
	<circle display="inline" fill="#E6FAF1" cx="-163.42" cy="35.397" r="1.26"/>
	<g id="a4tOTE.tif" display="inline">
		
			<image overflow="visible" width="1951" height="550" id="Layer_0" xlink:href="2C2547E6.png"  transform="matrix(1.240255e-09 -0.104 0.104 1.240255e-09 9.75 202.915)">
		</image>
	</g>
</g>
<g id="Layer_2">
	<circle fill="#E6FAF1" cx="38.75" cy="0" r="6.5"/>
	<circle fill="#E6FAF1" cx="38.75" cy="203" r="6.5"/>
	<circle fill="#E6FAF1" cx="37.75" cy="103" r="3"/>
	<circle fill="#E6FAF1" cx="56.75" cy="22" r="5.75"/>
	<circle fill="#E6FAF1" cx="20.75" cy="184" r="5.75"/>
	<circle fill="#E6FAF1" cx="66.75" cy="53" r="4.5"/>
	<circle fill="#E6FAF1" cx="9.75" cy="157" r="4.5"/>
	<circle fill="#E6FAF1" cx="56.75" cy="81" r="3.5"/>
	<circle fill="#E6FAF1" cx="15.75" cy="128" r="3.5"/>
	<polyline fill="none" stroke="#E6FAF1" stroke-miterlimit="10" points="38.75,0 56.75,22 66.75,53 56.75,81 37.75,103 15.75,128 
		9.75,157 20.5,183 38.75,203 	"/>
</g>
</svg>
