<svg xmlns="http://www.w3.org/2000/svg" width="600" height="600"><defs><style>.cls-2,.cls-3{fill:#00c775;stroke:#00c775;stroke-miterlimit:10}.cls-3{stroke-width:2px}</style></defs><path fill="#05b76b" d="M0 0h600v770.79H0z" id="Ebene_4" data-name="Ebene 4"/><g id="Ebene_2" data-name="Ebene 2"><circle class="cls-2" cx="221.5" cy="56" r="6.03"/><circle class="cls-2" cx="256.49" cy="19.01" r="4.02"/><circle class="cls-2" cx="223.5" cy="7" r="6.03"/><circle class="cls-2" cx="202.5" cy="37" r="6.03"/><circle class="cls-2" cx="177.5" cy="29" r="6.03"/><circle class="cls-2" cx="130.5" cy="8" r="6.03"/><circle class="cls-2" cx="92.5" cy="-4" r="6.03"/><circle class="cls-2" cx="168.5" cy="49" r="6.03"/><circle class="cls-2" cx="112.5" cy="41" r="6.03"/><circle class="cls-2" cx="71.5" cy="38" r="6.03"/><path class="cls-3" d="M70.65 37.77L112.5 41l56 8 50.94 6.58m82-118.43l-29.56 24.09m3.26 25.84l36.13-8.28M223.2 7.16l-21.83-26.1M207.9-40l26.6 24.59m.5-1.25l-15.56-73.79m32.87 50.68l-15.05 22.59M202.13 37l19.32 18.57m0 0l13-66.74M123.09-101l45.16-18.82m0 0l-41.15-19.31m40.15 18.82l-13.55-25.84m14.3 23.08l3.76-41.9m29.36 43.16l14.55-27.35m5.52 205l-54.45 27.1m0 0l-33.87-11.8m33.87 11.54l-51.19 8.78m0 0l-40.15 9.28m91.33-18.07l-30.86 14.8M167 82.43l-34.88 37.89m0 0l-29.36 28.86m64-66.24L155 116.05m66.24-60.47l-13.8 29.11m0 .25l-17.82 29.61"/><circle class="cls-2" cx="207.5" cy="85" r="6.03"/><circle class="cls-2" cx="189.5" cy="115" r="6.03"/><circle class="cls-2" cx="167.5" cy="83" r="6.03"/><circle class="cls-2" cx="133.5" cy="71" r="6.03"/><circle class="cls-2" cx="116.5" cy="92" r="6.03"/><circle class="cls-2" cx="136.5" cy="98" r="6.03"/><circle class="cls-2" cx="132.5" cy="120" r="6.03"/><circle class="cls-2" cx="154.5" cy="117" r="6.03"/><circle class="cls-2" cx="103.5" cy="149" r="6.03"/><circle class="cls-2" cx="75.5" cy="101" r="6.03"/><path class="cls-3" d="M219.94-90.7l44.16-61.73m0 0l31.61 1.26m-32.12-1.51l36.41-53.7m0 0L290.2-244m0 0l26.1-12.55m0 0l-2.76 29.86m0 0l15.31-27.85m0 0l7.78 19.07m0 0l-37.39 30.86m0 0l5.51-31.39m0 0l-14.8-7.78m14.8 7.78l11-20.33M305-235.73l8.28 8.78m0 0l-11.79 19.07m3.76-28.61l30.86 1.25m0 0l-5.52 19.57m0 0l25.09 21.58m11.54-26.1l-36.89 4.26m0 0l-28.61 9.28m28.1-9.28l-13.3-40.65m-60.22 275l19.1 40.67m0 0l1 38.64m0 0l2.76 26.6m0 0l-37.89-6m0 0l18.57-29.13m0 0l15.56-30.11m-54.2-3.51l20.32 62.48m0 0l34.38-20.58M242 118.06l-31.11 29.61m0 .25l-28.6 28.6m59.47-58.21l-6.27 30.11m0 0l-6.49 26.1m0 0l30.11-7m0 0L242 118.56m0 0l24.84 22.58m-37.64 32.62l-17.06 49.43m0 0l-13 32.62m14.05-32.87l-27.6 21.58m0 0l30.11 13.3m0 0l-3.51-34.12m47.17-56.46l2.26 38.89m0 0l26.85-15.56m0 0l-29.11-22.33m0 0l18.07 34.38m-56-146.79L304 50.31m0 0l84.56-6.52m-.25 0l-9-32.87"/><circle class="cls-2" cx="275.5" cy="59" r="6.03"/><circle class="cls-2" cx="259.5" cy="90" r="6.03"/><circle class="cls-2" cx="276.5" cy="98" r="6.03"/><circle class="cls-2" cx="279.5" cy="124" r="6.03"/><circle class="cls-2" cx="241.5" cy="119" r="6.03"/><circle class="cls-2" cx="267.5" cy="141" r="6.03"/><circle class="cls-2" cx="236.5" cy="149" r="6.03"/><circle class="cls-2" cx="210.5" cy="148" r="6.03"/><circle class="cls-2" cx="229.5" cy="175" r="6.03"/><circle class="cls-2" cx="259.5" cy="167" r="6.03"/><circle class="cls-2" cx="181.49" cy="177.01" r="4.02"/><circle class="cls-2" cx="185.49" cy="245.01" r="4.02"/><circle class="cls-2" cx="199.49" cy="256.01" r="4.02"/><circle class="cls-2" cx="216.49" cy="258.01" r="4.02"/><circle class="cls-2" cx="261.49" cy="206.01" r="4.02"/><circle class="cls-2" cx="277.49" cy="203.01" r="4.02"/><circle class="cls-2" cx="288.49" cy="191.01" r="4.02"/><circle class="cls-2" cx="212.5" cy="223" r="6.03"/><circle class="cls-2" cx="415.5" cy="176" r="6.03"/><circle class="cls-2" cx="405.5" cy="188" r="6.03"/><circle class="cls-2" cx="394.5" cy="195" r="6.03"/><circle class="cls-2" cx="400.5" cy="239" r="6.03"/><circle class="cls-2" cx="419.5" cy="254" r="6.03"/><circle class="cls-2" cx="445.5" cy="238" r="6.03"/><circle class="cls-2" cx="457.5" cy="205" r="6.03"/><circle class="cls-2" cx="439.5" cy="112" r="6.03"/><circle class="cls-2" cx="477.5" cy="130" r="6.03"/><circle class="cls-2" cx="512.5" cy="142" r="6.03"/><circle class="cls-2" cx="543.5" cy="146" r="6.03"/><circle class="cls-2" cx="421.49" cy="207.01" r="4.02"/><circle class="cls-2" cx="416.49" cy="218.01" r="4.02"/><circle class="cls-2" cx="390.49" cy="213.01" r="4.02"/><circle class="cls-2" cx="375.49" cy="185.01" r="4.02"/><circle class="cls-2" cx="391.49" cy="162.01" r="4.02"/><circle class="cls-3" cx="531.49" cy="73.01" r="4.02"/><path class="cls-3" d="M415.41 176l-39.9 9m0 0l14.55 27.85m0 0L400.35 239m18.82 15.31l-2.76-36.13m0 0l-26.1-5m15.31-25.09l-14.05-25.85m1.76 32.12l-17.31-9m17.57 9.79l27.6 12.3m0 0l-5.52-30.11m0 0l-10.79 10m0 0l16.31 19.57m0 0l37.64-1.51m-42.15 12.29l28.6 20.07m-29.86-62l23.84-64.24m0 0l37.89 17.82m0 0l35.13 12m0 0l30.86 4.27M388.31 43.78l61-.25m0 0L422.43 30m18.32-18.82L449 43.53m0 0l2 32.12m-27.1-12.3L449.53 44m0 0l16.31-28.6m55-1.51l-35.63 14.8m0 0l-35.93 15.59m0 0l24.09 21.83m-24.84-21.83L498 53.82m0 0L537.1 48m0 0l-5.52 24.34m0 0L497 53.82m-57.71 57.71l10.29-68.25m0 0l14.8-67.5m0 0l38.39-12.55m-.25 0L538.11-44M379.28 11.41l1.5-34.41"/><circle class="cls-2" cx="303.5" cy="51" r="6.03"/><circle class="cls-2" cx="379.5" cy="11" r="6.03"/><circle class="cls-2" cx="388.5" cy="44" r="6.03"/><circle class="cls-2" cx="422.5" cy="30" r="6.03"/><circle class="cls-2" cx="441.5" cy="12" r="6.03"/><circle class="cls-2" cx="424.5" cy="64" r="6.03"/><circle class="cls-2" cx="451.5" cy="76" r="6.03"/><circle class="cls-2" cx="473.5" cy="66" r="6.03"/><circle class="cls-2" cx="465.5" cy="16" r="6.03"/><circle class="cls-2" cx="485.5" cy="28" r="6.03"/><circle class="cls-2" cx="521.5" cy="14" r="6.03"/><circle class="cls-2" cx="498.5" cy="54" r="6.03"/><circle class="cls-2" cx="449.5" cy="44" r="6.03"/><circle class="cls-3" cx="537.49" cy="48.01" r="4.02"/><path class="cls-3" d="M467.85-90.21l.75-13.8m-.25 0L436-112.79m0 0l-30.61-10.29m40.9-23.34L436-113m0 0l21.58-9m-.25 0l6.78-19.32m0 0l18.32 8.53m0 0l4.27 12.55m0 0l-29.36-2m0 0l-11-24.34m-.25 0l18.32 5m0 0l-27.85 28.85m0 0l31.87 22.33m0 0l-10.79-31.62m0 0l38.89 18.32m0 0l-10-16.06m0 0L468.6-91m0 0l-4 66.74m22.08-96.1l-22.1-21.54m3.27 37.9l28.6.25m0 0l-28.1 12.55m14.05-41.9l7.28-34.9m-7 34.88l32.12-15.81M69.12-165.42l22 22.67m0 0l36 4m0 0l-24-28m0 0l-34 2.67M55.78-75.42l25.34-21.33m0 0l42.67-4m0 0l-34.67 22m0 0l-32.67 3.33m35.33 72l38.67 11.33m0 0l46.67 20.67m0 0l44 27.33m-47.33-98l27.33 22.67m7.33-21.33l-34.67-.67m60.67 23.33l6.67-37.33m0 0l21.33-32.67m-43.33-2.67l-52-30m0 0l33.33.67m0 0l18.67 30M177.2-231.88L162-203m0 0l10.29 37.07m0-.21l13.5-36m0 0L177-231.67m24.2 212.79l34.71 3.43m0 0L223.27 5.76m0 0l32.79 12.86m0 0l-19.5-33.43m0 0l38.36 1.71m0 0L272.56-38m0 0L243.2-19.53m132 204.21l15.86-22.93m0 0L415.91 175m-21.43 20.4l-3.64 17.79m9.64 25.07l15.64-20.57m0 0l-10.71-29.79m-11.57 7.29l-2.57-32.57m3.43 32.14l9.43-5.79m0 0L400.06 238"/><circle class="cls-2" cx="176.5" cy="368" r="6.03"/><circle class="cls-2" cx="162.5" cy="397" r="6.03"/><circle class="cls-2" cx="186.5" cy="399" r="6.03"/><circle class="cls-2" cx="172.5" cy="434" r="6.03"/><circle class="cls-2" cx="69.5" cy="436" r="6.03"/><circle class="cls-2" cx="102.5" cy="434" r="6.03"/><circle class="cls-2" cx="91.5" cy="457" r="6.03"/><circle class="cls-2" cx="127.5" cy="461" r="6.03"/><circle class="cls-2" cx="56.5" cy="525" r="6.03"/><circle class="cls-2" cx="82.5" cy="503" r="6.03"/><circle class="cls-2" cx="89.5" cy="522" r="6.03"/><circle class="cls-2" cx="123.5" cy="499" r="6.03"/><circle class="cls-2" cx="154.5" cy="454" r="6.03"/><circle class="cls-2" cx="167.5" cy="480" r="6.03"/><circle class="cls-2" cx="200.5" cy="481" r="6.03"/><circle class="cls-2" cx="219.5" cy="510" r="6.03"/><circle class="cls-2" cx="241.5" cy="546" r="6.03"/><circle class="cls-2" cx="262.5" cy="513" r="6.03"/><circle class="cls-2" cx="208.5" cy="560" r="6.03"/><circle class="cls-2" cx="174.5" cy="559" r="6.03"/><circle class="cls-2" cx="271.5" cy="561" r="6.03"/><circle class="cls-2" cx="201.49" cy="581.01" r="4.02"/><circle class="cls-2" cx="252.49" cy="560.01" r="4.02"/><circle class="cls-2" cx="301.49" cy="537.01" r="4.02"/><circle class="cls-2" cx="275.49" cy="587.01" r="4.02"/><circle class="cls-2" cx="311.49" cy="579.01" r="4.02"/><circle class="cls-2" cx="235.27" cy="584.77" r="10.8"/><circle class="cls-2" cx="92.5" cy="596" r="6.03"/><circle class="cls-2" cx="215.49" cy="451.01" r="4.02"/><path class="cls-3" d="M70.65 637.77L112.5 641l56 8 50.94 6.58m82-118.43l-29.61 24.09m3.26 25.84l36.13-8.28m-88.02 28.36l-21.83-26.1M207.9 560l26.6 24.59m.5-1.25l-15.56-73.77m32.87 50.68l-15.05 22.58M202.13 637l19.32 18.57m0 0l13-66.74M123.09 499l45.16-18.82m0 0l-41.15-19.31m40.15 18.82l-13.55-25.84m14.3 23.08l3.76-41.9m29.36 43.16l14.55-27.35m5.52 205l-54.45 27.1m0 0l-33.87-11.79m33.87 11.54l-51.19 8.78m0 0l-40.15 9.28m91.33-18.07l-30.86 14.8M167 682.43l-34.88 37.89m0 0l-29.36 28.86m64-66.24L155 716.05m66.24-60.47l-13.8 29.11m0 .25l-17.82 29.61"/><circle class="cls-2" cx="264.5" cy="447" r="6.03"/><circle class="cls-2" cx="295.5" cy="449" r="6.03"/><circle class="cls-2" cx="300.5" cy="394" r="6.03"/><circle class="cls-2" cx="356.5" cy="407" r="6.03"/><circle class="cls-2" cx="366.5" cy="380" r="6.03"/><circle class="cls-3" cx="329.5" cy="346" r="6.03"/><circle class="cls-2" cx="316.5" cy="344" r="6.03"/><circle class="cls-2" cx="290.49" cy="356.01" r="4.02"/><circle class="cls-2" cx="305.49" cy="364.01" r="4.02"/><circle class="cls-2" cx="313.49" cy="373.01" r="4.02"/><circle class="cls-2" cx="330.49" cy="385.01" r="4.02"/><circle class="cls-2" cx="336.49" cy="365.01" r="4.02"/><path class="cls-3" d="M219.94 509.3l44.16-61.73m0 0l31.61 1.26m-32.12-1.51l36.41-53.7m0 0L290.2 356m0 0l26.1-12.55m0 0l-2.76 29.86m0 0l15.31-27.85m0 0l7.78 19.07m0 0l-37.39 30.86m0 0l5.51-31.39m0 0l-14.8-7.78m14.8 7.78l11-20.33M305 364.27l8.28 8.78m0 0l-11.79 19.07m3.76-28.61l30.86 1.25m0 0l-5.52 19.57m0 0l25.09 21.58m11.54-26.1l-36.89 4.26m0 0l-28.61 9.28m28.1-9.28l-13.3-40.65m-60.22 275l19.07 40.65m0 0l1 38.64m0 0l2.76 26.6m0 0l-37.89-6m0 0l18.57-29.11m0 0l15.56-30.11m-54.2-3.51l20.32 62.48m0 0l34.37-20.58M242 718.06l-31.11 29.61m0 .25l-28.6 28.6m59.47-58.21l-6.27 30.11m0 0l-6.49 26.1m0 0l30.11-7m0 0L242 718.56m0 0l24.84 22.58m-37.64 32.62l-17.06 49.43m0 0l-13 32.62m14.05-32.87l-27.6 21.58m0 0l30.11 13.3m0 0l-3.51-34.12m47.17-56.46l2.26 38.89m0 0l26.85-15.56m0 0l-29.11-22.33m0 0l18.07 34.38m-56-146.79l82.57-5.52m0 0l84.56-6.52m-.25 0l-9-32.87M415.41 776l-39.9 9m0 0l14.55 27.85m0 0L400.35 839m18.82 15.31l-2.76-36.13m0 0l-26.1-5m15.31-25.09l-14.05-25.85m1.76 32.12l-17.31-9m17.57 9.79l27.6 12.3m0 0l-5.52-30.11m0 0l-10.79 10m0 0l16.31 19.57m0 0l37.64-1.51m-42.15 12.29l28.6 20.07m-29.86-62l23.84-64.24m0 0l37.89 17.82m0 0l35.13 12m0 0l30.86 4.27M388.31 643.78l61-.25m0 0L422.43 630m18.32-18.82l8.25 32.35m0 0l2 32.12m-27.1-12.3L449.53 644m0 0l16.31-28.6m55-1.51l-35.63 14.8m0 0l-35.88 15.56m0 0l24.09 21.83m-24.84-21.83l49.42 9.57m0 0l39.1-5.82m0 0l-5.52 24.34m0 0L497 653.82m-57.71 57.71l10.29-68.25m0 0l14.8-67.5m0 0l38.39-12.55m-.25 0l35.59-7.23m-158.83 55.41l1.5-34.41"/><circle class="cls-2" cx="381.5" cy="577" r="6.03"/><circle class="cls-2" cx="464.5" cy="576" r="6.03"/><circle class="cls-2" cx="503.5" cy="564" r="6.03"/><circle class="cls-2" cx="537.5" cy="556" r="6.03"/><circle class="cls-2" cx="514.5" cy="451" r="6.03"/><circle class="cls-2" cx="490.5" cy="431" r="6.03"/><circle class="cls-2" cx="446.5" cy="454" r="6.03"/><circle class="cls-2" cx="464.5" cy="458" r="6.03"/><circle class="cls-2" cx="405.5" cy="477" r="6.03"/><circle class="cls-2" cx="468.5" cy="496" r="6.03"/><circle class="cls-2" cx="468.5" cy="510" r="6.03"/><circle class="cls-2" cx="436.49" cy="487.01" r="4.02"/><circle class="cls-2" cx="457.49" cy="478.01" r="4.02"/><circle class="cls-2" cx="482.49" cy="467.01" r="4.02"/><circle class="cls-2" cx="486.49" cy="480.01" r="4.02"/><circle class="cls-2" cx="496.49" cy="496.01" r="4.02"/><path class="cls-3" d="M467.85 509.79l.75-13.8m-.25 0L436 487.21m0 0l-30.61-10.29m40.9-23.34L436 487m0 0l21.58-9m-.25 0l6.78-19.32m0 0l18.32 8.53m0 0l4.27 12.55m0 0l-29.36-2m0 0l-11-24.34m-.25 0l18.32 5m0 0l-27.85 28.85m0 0l31.87 22.33m0 0l-10.79-31.62m0 0l38.89 18.32m0 0l-10-16.06m0 0L468.6 509m0 0l-4 66.74m22.08-96.1l-22.1-21.54m3.27 37.9l28.6.25m0 0l-28.1 12.55m14.05-41.9l7.28-34.9m-7 34.88l32.12-15.81M69.12 434.58l22 22.67m0 0l36 4m0 0l-24-28m0 0l-34 2.67m-13.34 88.66l25.33-21.33m0 0l42.67-4m0 0l-34.67 22m0 0l-32.67 3.33m35.33 72l38.67 11.33m0 0l46.67 20.67m0 0l44 27.33m-47.33-98l27.33 22.67m7.33-21.33l-34.67-.67m60.67 23.33l6.67-37.33m0 0l21.33-32.67m-43.33-2.67l-52-30m0 0l33.33.67m0 0l18.67 30M177.2 368.12L162 397m0 0l10.29 37.07m0-.21l13.5-36m0 0L177 368.33m24.2 212.79l34.71 3.43m0 0l-12.64 21.21m0 0l32.79 12.86m0 0l-19.5-33.43m0 0l38.36 1.71m0 0l-2.36-24.9m0 0l-29.36 18.47m132 204.21l15.86-22.93m0 0L415.91 775m-21.43 20.4l-3.64 17.79m9.64 25.07l15.64-20.57m0 0l-10.71-29.79m-11.57 7.29l-2.57-32.57m3.43 32.14l9.43-5.79m0 0L400.06 838"/></g><g id="Ebene_2_Kopie" data-name="Ebene 2 Kopie"><circle class="cls-2" cx="56" cy="378.5" r="6.03"/><circle class="cls-2" cx="19.01" cy="343.51" r="4.02"/><circle class="cls-2" cx="7" cy="376.5" r="6.03"/><circle class="cls-2" cx="37" cy="397.5" r="6.03"/><circle class="cls-2" cx="29" cy="422.5" r="6.03"/><circle class="cls-2" cx="8" cy="469.5" r="6.03"/><circle class="cls-2" cx="-4" cy="507.5" r="6.03"/><circle class="cls-2" cx="49" cy="431.5" r="6.03"/><circle class="cls-2" cx="41" cy="487.5" r="6.03"/><circle class="cls-2" cx="38" cy="528.5" r="6.03"/><path class="cls-3" d="M37.77 529.35L41 487.5l8-56 6.58-50.94m-118.43-82l24.09 29.61m25.84-3.26l-8.28-36.13M7.16 376.8l-26.1 21.83M-40 392.1l24.59-26.6m-1.25-.5l-73.77 15.56m50.68-32.87l22.58 15.05M37 397.87l18.57-19.32m0 0l-66.74-13M-101 476.91l-18.82-45.16m0 0l-19.32 41.15m18.82-40.15l-25.84 13.55m23.08-14.3l-41.9-3.76m43.16-29.36l-27.35-14.55m205-5.52l27.1 54.45m0 0l-11.79 33.87m11.54-33.87l8.78 51.19m0 0l9.28 40.15m-18.06-91.35l14.8 30.86M82.43 433l37.89 34.88m0 0l28.86 29.36m-66.24-64L116.05 445m-60.47-66.19l29.11 13.8m.25 0l29.61 17.82"/><circle class="cls-2" cx="85" cy="392.5" r="6.03"/><circle class="cls-2" cx="115" cy="410.5" r="6.03"/><circle class="cls-2" cx="83" cy="432.5" r="6.03"/><circle class="cls-2" cx="71" cy="466.5" r="6.03"/><circle class="cls-2" cx="92" cy="483.5" r="6.03"/><circle class="cls-2" cx="98" cy="463.5" r="6.03"/><circle class="cls-2" cx="120" cy="467.5" r="6.03"/><circle class="cls-2" cx="117" cy="445.5" r="6.03"/><circle class="cls-2" cx="149" cy="496.5" r="6.03"/><circle class="cls-2" cx="101" cy="524.5" r="6.03"/><path class="cls-3" d="M-90.7 380.06l-61.73-44.16m0 0l1.26-31.61m-1.51 32.12l-53.7-36.41m0 0l-37.62 9.8m0 0l-12.55-26.1m0 0l29.86 2.76m0 0l-27.85-15.31m0 0l19.07-7.78m0 0l30.86 37.39m0 0l-31.39-5.51m0 0l-7.78 14.8m7.78-14.8l-20.33-11m20.6 10.75l8.78-8.28m0 0l19.07 11.79m-28.61-3.76l1.25-30.86m0 0l19.57 5.52m0 0l21.58-25.09m-26.1-11.54l4.26 36.89m0 0l9.28 28.61m-9.28-28.1l-40.65 13.3m275 60.22l40.67-19.1m0 0l38.64-1m0 0l26.6-2.76m0 0l-6 37.89m0 0L89.2 340.16m0 0L59.09 324.6m-3.51 54.2l62.48-20.32m0 0L97.48 324.1m20.58 33.9l29.61 31.11m.25 0l28.6 28.6m-58.21-59.47l30.11 6.27m0 0l26.1 6.52m0 0l-7-30.11m0 0L118.56 358m0 0l22.58-24.84m32.62 37.64l49.43 17.06m0 0l32.62 13m-32.87-14.05l21.58 27.6m0 0l13.3-30.11m0 0l-34.12 3.51m-56.46-47.17l38.89-2.26m0 0l-15.56-26.85m0 0l-22.33 29.11m0 0l34.38-18.07m-146.79 56L50.31 296m0 0l-6.52-84.56m0 .25l-32.87 9"/><circle class="cls-2" cx="59" cy="324.5" r="6.03"/><circle class="cls-2" cx="90" cy="340.5" r="6.03"/><circle class="cls-2" cx="98" cy="323.5" r="6.03"/><circle class="cls-2" cx="124" cy="320.5" r="6.03"/><circle class="cls-2" cx="119" cy="358.5" r="6.03"/><circle class="cls-2" cx="141" cy="332.5" r="6.03"/><circle class="cls-2" cx="149" cy="363.5" r="6.03"/><circle class="cls-2" cx="148" cy="389.5" r="6.03"/><circle class="cls-2" cx="175" cy="370.5" r="6.03"/><circle class="cls-2" cx="167" cy="340.5" r="6.03"/><circle class="cls-2" cx="177.01" cy="418.51" r="4.02"/><circle class="cls-2" cx="245.01" cy="414.51" r="4.02"/><circle class="cls-2" cx="256.01" cy="400.51" r="4.02"/><circle class="cls-2" cx="258.01" cy="383.51" r="4.02"/><circle class="cls-2" cx="206.01" cy="338.51" r="4.02"/><circle class="cls-2" cx="203.01" cy="322.51" r="4.02"/><circle class="cls-2" cx="191.01" cy="311.51" r="4.02"/><circle class="cls-2" cx="223" cy="387.5" r="6.03"/><circle class="cls-2" cx="176" cy="184.5" r="6.03"/><circle class="cls-2" cx="188" cy="194.5" r="6.03"/><circle class="cls-2" cx="195" cy="205.5" r="6.03"/><circle class="cls-2" cx="239" cy="199.5" r="6.03"/><circle class="cls-2" cx="254" cy="180.5" r="6.03"/><circle class="cls-2" cx="238" cy="154.5" r="6.03"/><circle class="cls-2" cx="205" cy="142.5" r="6.03"/><circle class="cls-2" cx="112" cy="160.5" r="6.03"/><circle class="cls-2" cx="130" cy="122.5" r="6.03"/><circle class="cls-2" cx="142" cy="87.5" r="6.03"/><circle class="cls-2" cx="146" cy="56.5" r="6.03"/><circle class="cls-2" cx="207.01" cy="178.51" r="4.02"/><circle class="cls-2" cx="218.01" cy="183.51" r="4.02"/><circle class="cls-2" cx="213.01" cy="209.51" r="4.02"/><circle class="cls-2" cx="185.01" cy="224.51" r="4.02"/><circle class="cls-2" cx="162.01" cy="208.51" r="4.02"/><circle class="cls-3" cx="73.01" cy="68.51" r="4.02"/><path class="cls-3" d="M176 184.59l9 39.9m0 0l27.85-14.55m0 0L239 199.65m15.31-18.82l-36.13 2.76m0 0l-5 26.1m-25.09-15.31l-25.85 14.05m32.12-1.76l-9 17.31m9.79-17.57l12.3-27.6m0 0l-30.11 5.52m0 0l10 10.79m0 0l19.57-16.31m0 0l-1.51-37.64m12.29 42.15l20.07-28.6m-62 29.86l-64.24-23.84m0 0l17.82-37.89m0 0l12-35.13m0 0l4.27-30.86M43.78 211.69l-.25-61m0 0L30 177.57m-18.84-18.32L43.53 151m0 0l32.12-2m-12.3 27.1L44 150.47m0 0l-28.6-16.31m-1.51-55l14.8 35.63m0 0l15.56 35.88m0 0l21.83-24.09m-21.8 24.89L53.82 102m0 0L48 62.9m0 0l24.34 5.52m0 0L53.82 103m57.71 57.71l-68.25-10.24m0 0l-67.5-14.8m0 0l-12.54-38.4m0 .25L-44 61.89m55.41 158.83l-34.41-1.5"/><circle class="cls-2" cx="51" cy="296.5" r="6.03"/><circle class="cls-2" cx="11" cy="220.5" r="6.03"/><circle class="cls-2" cx="44" cy="211.5" r="6.03"/><circle class="cls-2" cx="30" cy="177.5" r="6.03"/><circle class="cls-2" cx="12" cy="158.5" r="6.03"/><circle class="cls-2" cx="64" cy="175.5" r="6.03"/><circle class="cls-2" cx="76" cy="148.5" r="6.03"/><circle class="cls-2" cx="66" cy="126.5" r="6.03"/><circle class="cls-2" cx="16" cy="134.5" r="6.03"/><circle class="cls-2" cx="28" cy="114.5" r="6.03"/><circle class="cls-2" cx="14" cy="78.5" r="6.03"/><circle class="cls-2" cx="54" cy="101.5" r="6.03"/><circle class="cls-2" cx="44" cy="150.5" r="6.03"/><circle class="cls-3" cx="48.01" cy="62.51" r="4.02"/><path class="cls-3" d="M-90.21 132.15l-13.8-.75m0 .25l-8.78 32.35m0 0l-10.29 30.61m-23.34-40.9L-113 164m0 0l-9-21.58m0 .25l-19.32-6.78m0 0l8.53-18.32m0 0l12.55-4.27m0 0l-2 29.36m0 0l-24.34 11m0 .25l5-18.32m0 0l28.85 27.85m0 0l22.33-31.87m0 0l-31.62 10.79m0 0l18.32-38.89m0 0l-16.06 10m0 0L-91 131.4m0 0l66.74 4m-96.1-22.08l-21.58 22.08m37.89-3.26l.25-28.6m0 0l12.55 28.1m-41.9-14.05l-34.85-7.27m34.88 7l-15.81-32.12m-16.5 445.65l22.67-22m0 0l4-36m0 0l-28 24m0 0l2.67 34m88.67 13.33l-21.33-25.33m0 0l-4-42.67m0 0l22 34.67m0 0l3.33 32.67m72-35.33l11.33-38.64m0 0l20.67-46.67m0 0l27.33-44m-98 47.33l22.67-27.33m-21.33-7.33l-.67 34.67m23.33-60.67l-37.33-6.67m0 0l-32.67-21.33m-2.67 43.33l-30 52m0 0l.67-33.33m0 0l30-18.67m-141.79 41.92L-203 438m0 0l37.07-10.29m-.21 0l-36-13.5m0 0l-29.53 8.79m212.79-24.2l3.43-34.71m0 0l21.21 12.64m0 0l12.86-32.79m0 0l-33.43 19.5m0 0l1.71-38.36m0 0l-24.9 2.36m0 0l18.43 29.36m204.21-132l-22.93-15.86m0 0L175 184.09m20.36 21.43l17.79 3.64m25.07-9.64l-20.57-15.64m0 0l-29.75 10.71m7.29 11.57l-32.57 2.57m32.14-3.43l-5.76-9.43m0 0l49 4.07"/><circle class="cls-2" cx="368" cy="423.5" r="6.03"/><circle class="cls-2" cx="397" cy="437.5" r="6.03"/><circle class="cls-2" cx="399" cy="413.5" r="6.03"/><circle class="cls-2" cx="434" cy="427.5" r="6.03"/><circle class="cls-2" cx="436" cy="530.5" r="6.03"/><circle class="cls-2" cx="434" cy="497.5" r="6.03"/><circle class="cls-2" cx="457" cy="508.5" r="6.03"/><circle class="cls-2" cx="461" cy="472.5" r="6.03"/><circle class="cls-2" cx="525" cy="543.5" r="6.03"/><circle class="cls-2" cx="503" cy="517.5" r="6.03"/><circle class="cls-2" cx="522" cy="510.5" r="6.03"/><circle class="cls-2" cx="499" cy="476.5" r="6.03"/><circle class="cls-2" cx="454" cy="445.5" r="6.03"/><circle class="cls-2" cx="480" cy="432.5" r="6.03"/><circle class="cls-2" cx="481" cy="399.5" r="6.03"/><circle class="cls-2" cx="510" cy="380.5" r="6.03"/><circle class="cls-2" cx="546" cy="358.5" r="6.03"/><circle class="cls-2" cx="513" cy="337.5" r="6.03"/><circle class="cls-2" cx="560" cy="391.5" r="6.03"/><circle class="cls-2" cx="559" cy="425.5" r="6.03"/><circle class="cls-2" cx="561" cy="328.5" r="6.03"/><circle class="cls-2" cx="581.01" cy="398.51" r="4.02"/><circle class="cls-2" cx="560.01" cy="347.51" r="4.02"/><circle class="cls-2" cx="537.01" cy="298.51" r="4.02"/><circle class="cls-2" cx="587.01" cy="324.51" r="4.02"/><circle class="cls-2" cx="579.01" cy="288.51" r="4.02"/><circle class="cls-2" cx="584.77" cy="364.73" r="10.8"/><circle class="cls-2" cx="596" cy="507.5" r="6.03"/><circle class="cls-2" cx="451.01" cy="384.51" r="4.02"/><path class="cls-3" d="M637.77 529.35L641 487.5l8-56 6.58-50.94m-118.43-82l24.09 29.61m25.84-3.26l-8.28-36.13m28.35 88.07l-26.1 21.83M560 392.1l24.59-26.6m-1.25-.5l-73.77 15.56m50.68-32.87l22.58 15.05M637 397.87l18.57-19.32m0 0l-66.74-13M499 476.91l-18.82-45.16m0 0l-19.31 41.15m18.82-40.15l-25.84 13.55m23.08-14.3L435 428.23m43.16-29.36l-27.35-14.55m205-5.52l27.1 54.45m0 0l-11.79 33.87m11.54-33.87l8.78 51.19m0 0l9.28 40.15m-18.07-91.33l14.8 30.86M682.43 433l37.89 34.88m0 0l28.86 29.36m-66.24-64L716.05 445m-60.47-66.24l29.11 13.8m.25 0l29.61 17.82"/><circle class="cls-2" cx="447" cy="335.5" r="6.03"/><circle class="cls-2" cx="449" cy="304.5" r="6.03"/><circle class="cls-2" cx="394" cy="299.5" r="6.03"/><circle class="cls-2" cx="407" cy="243.5" r="6.03"/><circle class="cls-2" cx="380" cy="233.5" r="6.03"/><circle class="cls-3" cx="346" cy="270.5" r="6.03"/><circle class="cls-2" cx="344" cy="283.5" r="6.03"/><circle class="cls-2" cx="356.01" cy="309.51" r="4.02"/><circle class="cls-2" cx="364.01" cy="294.51" r="4.02"/><circle class="cls-2" cx="373.01" cy="286.51" r="4.02"/><circle class="cls-2" cx="385.01" cy="269.51" r="4.02"/><circle class="cls-2" cx="365.01" cy="263.51" r="4.02"/><path class="cls-3" d="M509.3 380.06l-61.73-44.16m0 0l1.26-31.61m-1.51 32.12L393.62 300m0 0L356 309.8m0 0l-12.55-26.1m0 0l29.86 2.76m0 0l-27.85-15.31m0 0l19.07-7.78m0 0l30.86 37.39m0 0L364 295.25m0 0l-7.78 14.8m7.78-14.8l-20.33-11m20.6 10.75l8.78-8.28m0 0l19.07 11.79m-28.61-3.76l1.25-30.86m0 0l19.57 5.52m0 0l21.58-25.09m-26.1-11.54l4.26 36.89m0 0l9.28 28.61m-9.28-28.1l-40.65 13.3m275 60.22l40.65-19.07m0 0l38.64-1m0 0l26.6-2.76m0 0l-6 37.89m0 0l-29.11-18.6m0 0l-30.11-15.56m-3.51 54.2l62.48-20.32m0 0l-20.58-34.38m20.58 33.9l29.61 31.11m.25 0l28.6 28.6m-58.21-59.47l30.11 6.27m0 0l26.1 6.52m0 0l-7-30.11m0 0L718.56 358m0 0l22.58-24.84m32.62 37.64l49.43 17.06m0 0l32.62 13m-32.87-14.05l21.58 27.6m0 0l13.3-30.11m0 0l-34.12 3.51m-56.46-47.17l38.89-2.26m0 0l-15.56-26.85m0 0l-22.33 29.11m0 0l34.38-18.07m-146.79 56L650.31 296m0 0l-6.52-84.56m0 .25l-32.87 9M776 184.59l9 39.9m0 0l27.85-14.55m0 0L839 199.65m15.31-18.82l-36.13 2.76m0 0l-5 26.1m-25.09-15.31l-25.85 14.05m32.12-1.76l-9 17.31m9.79-17.57l12.3-27.6m0 0l-30.11 5.52m0 0l10 10.79m0 0l19.57-16.31m0 0l-1.51-37.64m12.29 42.15l20.07-28.6m-62 29.86l-64.24-23.84m0 0l17.82-37.89m0 0l12-35.13m0 0l4.27-30.86M643.78 211.69l-.25-61m0 0L630 177.57m-18.82-18.32l32.35-8.25m0 0l32.12-2m-12.3 27.1L644 150.47m0 0l-28.6-16.31m-1.51-55l14.8 35.63m0 0l15.56 35.88m0 0l21.83-24.09m-21.83 24.84l9.57-49.42m0 0L648 62.9m0 0l24.34 5.52m0 0L653.82 103m57.71 57.71l-68.25-10.29m0 0l-67.5-14.8m0 0l-12.54-38.35m0 .25L556 61.89m55.45 158.83l-34.45-1.5"/><circle class="cls-2" cx="577" cy="218.5" r="6.03"/><circle class="cls-2" cx="576" cy="135.5" r="6.03"/><circle class="cls-2" cx="564" cy="96.5" r="6.03"/><circle class="cls-2" cx="556" cy="62.5" r="6.03"/><circle class="cls-2" cx="451" cy="85.5" r="6.03"/><circle class="cls-2" cx="431" cy="109.5" r="6.03"/><circle class="cls-2" cx="454" cy="153.5" r="6.03"/><circle class="cls-2" cx="458" cy="135.5" r="6.03"/><circle class="cls-2" cx="477" cy="194.5" r="6.03"/><circle class="cls-2" cx="496" cy="131.5" r="6.03"/><circle class="cls-2" cx="510" cy="131.5" r="6.03"/><circle class="cls-2" cx="487.01" cy="163.51" r="4.02"/><circle class="cls-2" cx="478.01" cy="142.51" r="4.02"/><circle class="cls-2" cx="467.01" cy="117.51" r="4.02"/><circle class="cls-2" cx="480.01" cy="113.51" r="4.02"/><circle class="cls-2" cx="496.01" cy="103.51" r="4.02"/><path class="cls-3" d="M509.79 132.15L496 131.4m0 .25L487.21 164m0 0l-10.29 30.61m-23.34-40.9L487 164m0 0l-9-21.58m0 .25l-19.32-6.78m0 0l8.53-18.32m0 0l12.55-4.27m0 0l-2 29.36m0 0l-24.34 11m0 .25l5-18.32m0 0l28.85 27.85m0 0l22.33-31.87m0 0l-31.62 10.79m0 0l18.32-38.89m0 0l-16.06 10m0 0L509 131.4m0 0l66.74 4m-96.1-22.08l-21.54 22.1m37.9-3.27l.25-28.6m0 0l12.55 28.1m-41.9-14.05l-34.9-7.28m34.88 7l-15.8-32.09m-16.5 445.65l22.67-22m0 0l4-36m0 0l-28 24m0 0l2.67 34m88.67 13.33l-21.33-25.33m0 0l-4-42.67m0 0l22 34.67m0 0l3.33 32.67m72-35.33l11.33-38.67m0 0l20.67-46.67m0 0l27.33-44m-98 47.33l22.67-27.33m-21.33-7.33l-.67 34.67m23.33-60.67l-37.33-6.67m0 0l-32.67-21.33m-2.67 43.33l-30 52m0 0l.67-33.33m0 0l30-18.67m-141.8 41.92L397 438m0 0l37.07-10.29m-.21 0l-36-13.5m0 0L368.33 423m212.79-24.2l3.43-34.71m0 0l21.21 12.64m0 0l12.86-32.79m0 0l-33.43 19.5m0 0l1.71-38.36m0 0l-24.9 2.36m0 0l18.43 29.36m204.21-132l-22.93-15.86m0 0L775 184.09m20.36 21.43l17.79 3.64m25.07-9.64l-20.57-15.64m0 0l-29.75 10.71m7.29 11.57l-32.57 2.57m32.14-3.43l-5.76-9.43m0 0l49 4.07"/></g></svg>